<svg xmlns="http://www.w3.org/2000/svg" width="440" height="360" viewBox="0 0 440 360" role="img" aria-labelledby="title desc">
  <title id="title">餐厅面试准备插图</title>
  <desc id="desc">餐盘、清单和学校餐厅服务元素的简洁插图</desc>
  <rect width="440" height="360" rx="28" fill="#FFF8EA"/>
  <rect x="52" y="48" width="336" height="232" rx="18" fill="#FFFFFF" stroke="#D9C9B5" stroke-width="4"/>
  <rect x="78" y="74" width="132" height="24" rx="8" fill="#1E6B5C"/>
  <rect x="78" y="114" width="114" height="14" rx="7" fill="#E8DCCB"/>
  <rect x="78" y="142" width="144" height="14" rx="7" fill="#E8DCCB"/>
  <rect x="78" y="170" width="124" height="14" rx="7" fill="#E8DCCB"/>
  <circle cx="294" cy="150" r="68" fill="#EDF7F3" stroke="#1E6B5C" stroke-width="4"/>
  <circle cx="294" cy="150" r="38" fill="#FFFFFF" stroke="#D9C9B5" stroke-width="4"/>
  <path d="M269 150h50" stroke="#C9563F" stroke-width="8" stroke-linecap="round"/>
  <path d="M294 125v50" stroke="#F1B94B" stroke-width="8" stroke-linecap="round"/>
  <path d="M258 238h72" stroke="#3D6F8F" stroke-width="10" stroke-linecap="round"/>
  <path d="M252 260h84" stroke="#D9C9B5" stroke-width="10" stroke-linecap="round"/>
  <path d="M95 226l20 20 42-48" fill="none" stroke="#1E6B5C" stroke-width="12" stroke-linecap="round" stroke-linejoin="round"/>
  <rect x="58" y="300" width="324" height="18" rx="9" fill="#D9C9B5"/>
  <rect x="86" y="318" width="48" height="14" rx="7" fill="#C9563F"/>
  <rect x="152" y="318" width="118" height="14" rx="7" fill="#1E6B5C"/>
  <rect x="286" y="318" width="68" height="14" rx="7" fill="#F1B94B"/>
</svg>
